<?xml version="1.0" standalone="no"?>
<!DOCTYPE svg PUBLIC "-//W3C//DTD SVG 20010904//EN"
 "http://www.w3.org/TR/2001/REC-SVG-20010904/DTD/svg10.dtd">
<svg version="1.0" xmlns="http://www.w3.org/2000/svg"
 width="913.000000pt" height="1280.000000pt" viewBox="0 0 913.000000 1280.000000"
 preserveAspectRatio="xMidYMid meet">
<g transform="translate(0.000000,1280.000000) scale(0.100000,-0.100000)"
fill="#000000" stroke="none">
<path d="M4980 12784 c-126 -41 -226 -123 -395 -327 -116 -141 -111 -134 -162
-251 -46 -106 -64 -131 -127 -177 -47 -35 -79 -36 -183 -8 -53 15 -95 20 -141
17 -73 -5 -71 -3 -146 -129 -46 -76 -46 -76 -96 -83 -27 -4 -82 -21 -122 -38
-66 -28 -87 -32 -213 -39 -157 -8 -234 -26 -292 -68 -93 -68 -219 -248 -291
-418 -73 -174 -99 -263 -154 -538 -12 -57 -5 -398 11 -545 5 -52 15 -158 21
-235 7 -83 30 -231 57 -365 25 -124 48 -237 50 -251 3 -15 -4 -43 -16 -67 -18
-34 -21 -59 -21 -150 0 -84 -6 -129 -25 -203 -14 -51 -33 -134 -41 -184 -26
-153 -36 -198 -57 -245 -38 -87 -107 -380 -107 -456 0 -17 -8 -42 -19 -55 -33
-43 -68 -123 -81 -184 -39 -197 -92 -376 -141 -480 -105 -223 -179 -397 -179
-421 0 -28 25 -43 125 -73 129 -39 134 -51 100 -254 -47 -279 -73 -370 -260
-927 -133 -397 -161 -468 -225 -580 -27 -47 -67 -133 -90 -192 -22 -58 -55
-124 -71 -145 -62 -76 -123 -181 -181 -303 -32 -69 -67 -143 -79 -164 -35 -63
-221 -312 -434 -581 -201 -252 -227 -294 -305 -480 -84 -201 -422 -907 -466
-971 -19 -28 -41 -77 -50 -110 -8 -32 -35 -102 -59 -154 -45 -96 -74 -226 -60
-269 8 -26 -21 -254 -40 -316 -22 -74 -19 -88 32 -194 39 -80 62 -111 133
-182 47 -48 114 -106 150 -129 61 -39 69 -41 123 -38 68 5 93 21 160 104 67
82 76 123 87 364 10 221 22 289 65 372 48 93 89 135 152 155 l56 18 67 125
c62 115 400 694 570 975 40 66 102 176 138 244 36 68 99 170 141 225 41 56
101 138 132 183 68 100 112 140 302 273 81 57 147 107 147 111 0 5 33 31 74
58 70 48 79 58 208 253 209 314 299 430 743 960 94 112 203 244 243 294 76 97
104 115 135 86 10 -9 89 -109 175 -222 343 -451 643 -831 802 -1020 98 -115
122 -154 155 -255 33 -97 34 -88 -29 -257 -19 -54 -40 -126 -45 -160 -25 -161
-42 -452 -51 -869 -10 -509 -25 -803 -45 -899 -30 -150 -115 -552 -134 -635
-11 -49 -27 -137 -36 -195 -10 -60 -40 -176 -71 -270 -70 -214 -71 -216 -84
-342 -8 -76 -9 -112 -1 -126 13 -25 93 -56 197 -76 44 -8 111 -22 149 -30 39
-9 102 -16 142 -16 l71 0 32 40 c48 61 66 56 171 -46 l88 -87 108 -24 c166
-37 516 -93 580 -93 32 0 103 -7 158 -16 55 -8 124 -18 153 -21 l52 -5 0 94
c0 90 -1 95 -27 120 -16 14 -104 61 -198 104 l-170 79 -110 110 c-131 131
-203 224 -250 321 -60 121 -44 194 42 194 39 0 61 20 67 63 3 18 15 160 26
317 36 495 89 1162 100 1240 5 41 19 147 30 235 18 149 56 346 129 676 74 332
131 717 131 883 0 68 -1 72 -74 195 -147 252 -264 520 -410 949 -58 170 -258
689 -346 900 -16 37 -12 69 15 122 29 57 31 89 11 180 -8 36 -24 126 -35 200
-11 74 -34 225 -51 335 -16 110 -55 371 -84 580 -30 209 -80 535 -111 725
l-57 345 17 135 c14 121 46 331 75 510 6 36 18 75 26 88 14 22 21 23 87 19 40
-2 126 -9 192 -16 66 -7 237 -23 380 -37 143 -14 330 -34 415 -46 129 -17 184
-20 325 -15 181 7 329 22 383 38 34 11 65 60 92 144 29 94 52 135 78 142 14 3
71 1 126 -5 56 -6 199 -19 319 -28 208 -17 220 -17 274 0 88 28 129 60 159
125 15 31 41 88 60 126 18 39 36 84 40 100 4 17 22 58 41 93 18 35 33 74 33
86 0 12 7 32 16 45 15 21 22 23 79 19 78 -7 162 6 186 28 10 9 26 42 35 73 25
88 41 111 92 133 45 20 52 20 157 8 126 -15 223 -18 277 -7 34 7 39 12 52 57
8 28 29 75 45 106 17 30 31 64 31 74 0 20 -84 100 -105 100 -7 0 -29 -7 -49
-15 -33 -14 -55 -14 -219 0 -247 21 -351 33 -419 51 -32 8 -108 21 -170 29
-62 8 -141 24 -175 36 -57 19 -64 19 -98 5 -21 -9 -47 -16 -60 -16 -30 0 -55
-30 -55 -66 0 -53 -19 -96 -64 -144 -28 -30 -47 -61 -51 -84 -7 -35 -24 -53
-109 -119 -20 -15 -54 -52 -75 -81 -46 -62 -79 -73 -158 -56 -26 6 -75 15
-108 20 -33 4 -85 15 -115 24 -30 9 -99 20 -152 25 -82 8 -106 14 -153 41
l-56 32 -78 -12 c-72 -12 -83 -11 -152 10 -59 18 -85 21 -129 15 -81 -12 -193
-6 -300 15 -74 14 -107 26 -149 54 -55 38 -62 39 -176 37 -59 -2 -80 3 -131
28 -105 50 -112 78 -63 241 40 137 57 167 124 225 52 44 64 63 130 201 67 141
78 158 144 220 77 73 91 102 91 190 0 40 -7 60 -32 99 -62 92 -110 170 -130
210 -12 22 -40 65 -63 95 -23 30 -59 87 -80 125 -45 83 -77 120 -125 145 -50
25 -210 80 -235 80 -11 0 -48 10 -80 22 -53 19 -163 42 -250 53 -16 2 -50 -3
-75 -11z"/>
</g>
</svg>
